HIERARCHY
ROOT Hips
{
	OFFSET -21.947001 39.810204 44.525997
	CHANNELS 6 Xposition Yposition Zposition Zrotation Xrotation Yrotation
	JOINT Chest
	{
		OFFSET -0.201599 0.334099 6.453201
		CHANNELS 6 Xposition Yposition Zposition Zrotation Xrotation Yrotation
		JOINT Chest2
		{
			OFFSET 0.000000 0.000000 3.568001
			CHANNELS 6 Xposition Yposition Zposition Zrotation Xrotation Yrotation
			JOINT Neck
			{
				OFFSET 0.000000 0.000000 8.296402
				CHANNELS 6 Xposition Yposition Zposition Zrotation Xrotation Yrotation
				JOINT Head
				{
					OFFSET 0.000000 0.000000 2.173901
					CHANNELS 6 Xposition Yposition Zposition Zrotation Xrotation Yrotation
					End Site
					{
						OFFSET 0.000000 0.000000 7.891998
					}
				}
			}
			JOINT LeftCollar
			{
				OFFSET 1.927601 0.221401 6.049000
				CHANNELS 6 Xposition Yposition Zposition Zrotation Xrotation Yrotation
				JOINT LeftShoulder
				{
					OFFSET 4.959700 0.000000 0.000000
					CHANNELS 6 Xposition Yposition Zposition Zrotation Xrotation Yrotation
					JOINT LeftElbow
					{
						OFFSET 0.000000 0.000000 -8.654202
						CHANNELS 6 Xposition Yposition Zposition Zrotation Xrotation Yrotation
						JOINT LeftWrist
						{
							OFFSET 0.000000 0.000000 -13.864101
							CHANNELS 6 Xposition Yposition Zposition Zrotation Xrotation Yrotation
							End Site
							{
								OFFSET 0.000000 0.000000 -2.173901
							}
						}
					}
				}
			}
			JOINT RightCollar
			{
				OFFSET -3.155701 -0.764999 6.687801
				CHANNELS 6 Xposition Yposition Zposition Zrotation Xrotation Yrotation
				JOINT RightShoulder
				{
					OFFSET -3.592899 0.000000 0.000000
					CHANNELS 6 Xposition Yposition Zposition Zrotation Xrotation Yrotation
					JOINT RightElbow
					{
						OFFSET 0.000000 0.000000 -10.352398
						CHANNELS 6 Xposition Yposition Zposition Zrotation Xrotation Yrotation
						JOINT RightWrist
						{
							OFFSET 0.000000 0.000000 -12.750301
							CHANNELS 6 Xposition Yposition Zposition Zrotation Xrotation Yrotation
							End Site
							{
								OFFSET 0.000000 0.000000 -2.173901
							}
						}
					}
				}
			}
		}
	}
	JOINT LeftHip
	{
		OFFSET 2.460600 -0.518101 -2.735500
		CHANNELS 6 Xposition Yposition Zposition Zrotation Xrotation Yrotation
		JOINT LeftKnee
		{
			OFFSET 0.000000 -0.000004 -17.005899
			CHANNELS 6 Xposition Yposition Zposition Zrotation Xrotation Yrotation
			JOINT LeftAnkle
			{
				OFFSET 0.000000 0.000000 -19.194401
				CHANNELS 6 Xposition Yposition Zposition Zrotation Xrotation Yrotation
				End Site
				{
					OFFSET 0.000000 -8.134600 0.000000
				}
			}
		}
	}
	JOINT RightHip
	{
		OFFSET -3.115499 -0.679600 -2.320301
		CHANNELS 6 Xposition Yposition Zposition Zrotation Xrotation Yrotation
		JOINT RightKnee
		{
			OFFSET 0.000000 -0.000004 -17.680401
			CHANNELS 6 Xposition Yposition Zposition Zrotation Xrotation Yrotation
			JOINT RightAnkle
			{
				OFFSET 0.000000 0.000000 -16.993797
				CHANNELS 6 Xposition Yposition Zposition Zrotation Xrotation Yrotation
				End Site
				{
					OFFSET 0.000000 -8.842300 0.000000
				}
			}
		}
	}
}
MOTION
Frames: 6
Frame Time: 0.041667
-26.102999 31.765705 43.557991 2863.414195 -5.446508 6.303204 -0.201600 0.334097 6.453200 15.279663 10.503740 5.525587 -0.000000 -0.000000 3.568000 -11.054376 -3.622519 -3.195146 -0.000001 0.000001 8.296401 125.096472 -181.457827 175.430199 -0.000002 0.000003 2.173909 -3.491479 3.700137 -7.164646 1.927594 0.221403 6.048998 -15.836279 -0.969694 -12.287355 4.959702 0.000003 0.000005 203.381901 162.723301 136.145164 0.000004 -0.000004 -8.654196 59.686038 -5.948160 2.413426 0.000006 -0.000002 -13.864098 4095.782714 -165.158687 202.160363 -3.155704 -0.764996 6.687797 20.826024 -12.008001 -15.517024 -3.592900 0.000003 0.000010 -18.608203 -7.084599 47.350717 -0.000007 0.000002 -10.352401 -78.969746 -104.485119 -6.177769 0.000003 -0.000002 -12.750319 -73.983386 199.124466 -190.785830 2.460600 -0.518102 -2.735503 -43.598467 41.976335 -9.250885 -0.000001 -0.000005 -17.005907 -190.783685 174.925653 -182.864641 0.000004 0.000004 -19.194399 581.832779 131.778883 288.126421 -3.115499 -0.679598 -2.320299 5.276961 5.417573 -8.876969 0.000005 -0.000001 -17.680399 -524.207074 163.640541 -190.193325 0.000002 0.000001 -16.993795 700.891719 26.112524 -354.689757
-26.089197 31.752304 43.564991 2863.388623 -5.359904 6.362839 -0.201599 0.334098 6.453205 15.302791 10.286732 5.409733 0.000004 0.000002 3.567997 -11.086650 -3.556372 -3.193955 0.000006 -0.000002 8.296394 125.196616 -181.395372 175.531012 0.000002 0.000003 2.173902 -3.532048 3.691734 -7.117917 1.927608 0.221398 6.048997 -15.894658 -0.923750 -12.181985 4.959701 0.000002 0.000002 203.669083 162.850329 136.058816 -0.000003 -0.000000 -8.654197 59.112350 -5.948114 2.414871 0.000000 -0.000005 -13.864103 4096.126299 -165.135341 201.972628 -3.155698 -0.765005 6.687789 20.505850 -12.186791 -15.599961 -3.592905 0.000005 0.000002 -17.888866 -6.729753 47.604387 -0.000001 0.000003 -10.352394 -80.142872 -104.365987 -7.059058 0.000003 0.000000 -12.750304 -73.992703 199.079606 -190.740450 2.460597 -0.518099 -2.735497 -43.605266 41.979705 -9.382731 -0.000000 -0.000006 -17.005901 -190.857506 174.937237 -182.710620 -0.000006 0.000003 -19.194401 581.748631 131.778924 288.018859 -3.115501 -0.679593 -2.320298 5.326780 5.342784 -8.925871 -0.000001 -0.000006 -17.680403 -524.161121 163.645500 -190.194868 0.000002 0.000009 -16.993792 700.789867 26.075311 -354.662518
-26.072399 31.736805 43.572598 2863.349062 -5.299425 6.430404 -0.201602 0.334101 6.453199 15.344503 10.092136 5.283363 0.000004 -0.000003 3.568002 -11.113960 -3.499740 -3.193152 -0.000000 -0.000004 8.296392 125.277253 -181.336564 175.634162 0.000001 -0.000001 2.173895 -3.561046 3.675362 -7.067493 1.927603 0.221398 6.048993 -15.973367 -0.845501 -12.077568 4.959700 0.000001 0.000001 203.888674 163.001604 135.942785 -0.000009 -0.000001 -8.654197 58.296040 -5.778795 2.298349 0.000003 -0.000004 -13.864103 4096.180504 -165.060278 201.069294 -3.155704 -0.765007 6.687793 20.051142 -12.419163 -15.748941 -3.592897 0.000001 0.000006 -17.094389 -6.199898 48.043431 0.000006 0.000002 -10.352401 -81.388944 -104.178430 -7.958086 0.000000 0.000000 -12.750304 -74.267522 199.003285 -190.789723 2.460600 -0.518100 -2.735497 -43.704526 42.037595 -9.456291 0.000002 -0.000008 -17.005901 -192.151922 174.855315 -182.615858 -0.000004 0.000001 -19.194399 583.130460 132.144462 289.548139 -3.115505 -0.679590 -2.320292 5.356087 5.287797 -8.991619 0.000007 -0.000001 -17.680395 -524.152979 163.627741 -190.176399 0.000004 0.000014 -16.993792 700.744843 26.043732 -354.593861
-26.048500 31.714804 43.582794 2863.356494 -5.289716 6.450303 -0.201599 0.334101 6.453203 15.341363 10.038015 5.228076 0.000001 0.000005 3.567996 -11.144102 -3.477830 -3.197786 -0.000001 0.000003 8.296397 125.317633 -181.298834 175.681017 0.000004 -0.000001 2.173909 -3.576257 3.654963 -7.018421 1.927602 0.221404 6.048998 -16.028487 -0.798474 -12.023864 4.959696 0.000001 0.000010 204.066067 163.152578 135.790513 0.000005 0.000000 -8.654198 57.852720 -5.635673 2.201358 -0.000001 0.000000 -13.864101 4096.250882 -165.014611 201.107161 -3.155705 -0.764999 6.687796 19.500605 -12.725333 -16.059863 -3.592902 0.000006 0.000000 -16.146596 -5.718111 48.678260 -0.000008 0.000000 -10.352397 -83.014146 -103.906479 -9.250509 -0.000001 0.000003 -12.750306 -74.524447 198.934177 -190.831865 2.460602 -0.518096 -2.735502 -43.405890 41.939755 -9.657084 -0.000003 -0.000010 -17.005905 -190.631782 175.088908 -182.516465 -0.000001 0.000001 -19.194399 581.029112 131.458028 286.853356 -3.115494 -0.679591 -2.320292 5.306392 5.291398 -8.946516 -0.000005 -0.000001 -17.680401 -524.182704 163.615474 -190.212627 0.000003 0.000003 -16.993799 700.770469 26.027346 -354.471846
-26.026999 31.697906 43.589497 2863.397366 -5.249836 6.493973 -0.201598 0.334098 6.453205 15.300380 9.958981 5.181793 0.000004 0.000000 3.567996 -11.162203 -3.470695 -3.202576 -0.000002 0.000006 8.296403 125.325802 -181.286881 175.723938 0.000006 0.000001 2.173903 -3.566396 3.633471 -6.980520 1.927602 0.221408 6.049003 -16.076640 -0.750716 -11.988197 4.959697 0.000000 0.000000 203.928562 163.074865 135.737265 -0.000004 0.000004 -8.654201 58.041670 -5.457602 2.067974 0.000003 -0.000002 -13.864100 4096.015705 -164.929138 201.135602 -3.155704 -0.765001 6.687800 18.762077 -13.140432 -16.468911 -3.592896 0.000000 0.000007 -15.036568 -5.113870 49.156957 0.000002 -0.000003 -10.352397 -84.312641 -103.874637 -10.240918 0.000003 -0.000006 -12.750312 -74.660982 198.828255 -190.819899 2.460602 -0.518098 -2.735505 -43.623541 41.991231 -9.609265 -0.000005 -0.000006 -17.005899 -189.859069 175.220594 -182.426512 -0.000007 0.000003 -19.194401 580.175283 131.182526 285.768858 -3.115495 -0.679595 -2.320297 5.259360 5.257149 -8.943399 0.000002 0.000002 -17.680401 -524.307614 163.598521 -190.215687 0.000006 -0.000005 -16.993797 700.846421 26.036024 -354.342373
-26.002499 31.675503 43.599297 2863.348844 -5.285382 6.511194 -0.201598 0.334099 6.453214 15.357428 9.971244 5.145482 0.000000 0.000001 3.568004 -11.187595 -3.471638 -3.208231 -0.000001 -0.000002 8.296401 125.316063 -181.287181 175.729238 0.000003 -0.000001 2.173903 -3.546419 3.615392 -6.951631 1.927595 0.221402 6.049006 -16.096686 -0.712116 -11.970466 4.959700 0.000002 -0.000004 203.677443 162.911514 135.735994 0.000003 -0.000001 -8.654203 57.986332 -5.324617 1.887801 0.000006 -0.000005 -13.864102 4096.305524 -164.886600 201.376175 -3.155707 -0.764998 6.687799 18.689894 -13.186003 -16.542677 -3.592903 0.000002 -0.000007 -15.034204 -5.233677 49.295285 -0.000002 0.000002 -10.352396 -84.488880 -103.799635 -10.541002 -0.000001 0.000006 -12.750312 -74.717584 198.890806 -190.798015 2.460601 -0.518094 -2.735493 -43.394736 41.942593 -9.618526 -0.000000 -0.000005 -17.005899 -188.005806 175.413943 -182.447877 -0.000006 0.000006 -19.194401 577.702755 130.276815 282.539162 -3.115497 -0.679596 -2.320291 5.364422 5.306336 -8.926799 0.000005 0.000006 -17.680401 -524.522192 163.616867 -190.201630 0.000004 0.000006 -16.993797 700.969201 26.073656 -354.218555
